<svg version="1.1" id="Layer_1" xmlns="http://www.w3.org/2000/svg" xmlns:xlink="http://www.w3.org/1999/xlink" x="0px" y="0px" viewBox="0 0 500 500" style="width: 166px;" xml:space="preserve" data-imageid="coding-1-29" imageName="Coding 1" class="illustrations_image">
<style type="text/css">
	.st0_coding-1-29{fill:#231F20;}
	.st1_coding-1-29{fill:#FFFFFF;}
	.st2_coding-1-29{fill:#D1D3D4;}
	.st3_coding-1-29{fill:#68E1FD;}
</style>
<g id="chair_coding-1-29">
	<path class="st0_coding-1-29" d="M287.2,337.3l1.8-33.8l-48-2.4l-30,1.8c0,0,5.6,33.3,8.8,35.9S287.2,337.3,287.2,337.3z"/>
	<path class="st0_coding-1-29" d="M231.8,340.3c-6.8,0-11.6-0.3-12.6-1c-3.2-2.6-8.4-32.9-9-36.3c0-0.2,0-0.4,0.1-0.5c0.1-0.2,0.3-0.3,0.5-0.3&#10;&#9;&#9;l30.1-1.7l48.1,2.3c0.2,0,0.4,0.1,0.5,0.2c0.1,0.1,0.2,0.3,0.2,0.5l-1.8,33.8c0,0.4-0.3,0.6-0.7,0.7&#10;&#9;&#9;C279.5,338.5,249.3,340.3,231.8,340.3z M211.8,303.5c2.2,12.8,6.3,33,8.4,34.7c2.4,1.7,41.7,0,66.4-1.6l1.8-32.5l-47.3-2.3&#10;&#9;&#9;L211.8,303.5z M287.2,337.3L287.2,337.3z"/>
	<path class="st0_coding-1-29" d="M180,372.8c-1.5,0-2.8-1.2-2.8-2.8c0-1,0.5-1.8,1.3-2.4c6.3-4.1,13.4-9.6,14.8-11.6&#10;&#9;&#9;c-0.8-3.1-8.5-14.9-15.5-24.5c-0.9-1.2-0.6-3,0.6-3.9c1.2-0.9,3-0.6,3.9,0.6l0,0c17.7,24.2,16.8,27.8,16.5,29&#10;&#9;&#9;c-1,4-11.2,11.2-17.2,15.1C181.1,372.7,180.5,372.8,180,372.8z"/>
	<path class="st0_coding-1-29" d="M177.4,374.5L177.4,374.5c-4,0-7.3-3.3-7.3-7.3v-41.1c0-4,3.3-7.3,7.3-7.3h0c4,0,7.3,3.3,7.3,7.3v41.1&#10;&#9;&#9;C184.7,371.3,181.4,374.5,177.4,374.5z"/>
	<path class="st0_coding-1-29" d="M177.4,375.2c-4.4,0-8-3.6-8-8v-41.1c0.4-4.4,4.4-7.6,8.8-7.2c3.8,0.4,6.8,3.4,7.2,7.2v41.1&#10;&#9;&#9;C185.3,371.6,181.8,375.2,177.4,375.2z M177.4,319.6c-3.6,0-6.6,2.9-6.6,6.5v41.1c0,3.6,2.9,6.6,6.6,6.6c3.6,0,6.6-2.9,6.6-6.6&#10;&#9;&#9;v-41.1C184,322.5,181,319.6,177.4,319.6z"/>
	<path class="st0_coding-1-29" d="M320,372.8c-0.5,0-1.1-0.2-1.5-0.5c-6-3.9-16.2-11.1-17.2-15.1c-0.3-1.2-1.2-4.8,16.5-29&#10;&#9;&#9;c0.9-1.2,2.7-1.5,3.9-0.6c1.2,0.9,1.5,2.7,0.6,3.9c-7,9.6-14.8,21.5-15.5,24.5c1.2,1.9,8.4,7.4,14.8,11.6c1.3,0.8,1.7,2.6,0.8,3.9&#10;&#9;&#9;C321.8,372.3,321,372.8,320,372.8L320,372.8z"/>
	<path class="st0_coding-1-29" d="M322.6,318.9L322.6,318.9c4,0,7.3,3.3,7.3,7.3v41.1c0,4-3.3,7.3-7.3,7.3h0c-4,0-7.3-3.3-7.3-7.3v-41.1&#10;&#9;&#9;C315.3,322.1,318.6,318.9,322.6,318.9z"/>
	<path class="st0_coding-1-29" d="M322.6,375.2c-4.4,0-8-3.6-8-8v-41.1c0.4-4.4,4.4-7.6,8.8-7.2c3.8,0.4,6.8,3.4,7.2,7.2v41.1&#10;&#9;&#9;C330.5,371.6,326.9,375.2,322.6,375.2z M322.6,319.6c-3.6,0-6.6,2.9-6.6,6.5v41.1c0,3.6,2.9,6.6,6.6,6.6c3.6,0,6.6-2.9,6.6-6.6&#10;&#9;&#9;v-41.1C329.1,322.5,326.2,319.6,322.6,319.6z"/>
	<path class="st0_coding-1-29" d="M306.2,379.2l-2.9-29.7H196.7l-2.9,29.7c-1.6,16.3,10.3,30.8,26.6,32.4c1,0.1,1.9,0.1,2.9,0.1h53.4&#10;&#9;&#9;c16.4,0,29.7-13.3,29.7-29.7C306.4,381.1,306.3,380.1,306.2,379.2z"/>
	<path class="st0_coding-1-29" d="M276.7,412.5h-53.4c-16.8,0-30.4-13.6-30.4-30.4c0-1,0-2,0.1-3l2.9-29.7c0-0.4,0.3-0.6,0.7-0.6h106.6&#10;&#9;&#9;c0.4,0,0.7,0.3,0.7,0.6l2.9,29.7l0,0c1.6,16.7-10.6,31.6-27.3,33.2C278.7,412.4,277.7,412.5,276.7,412.5L276.7,412.5z M197.3,350.2&#10;&#9;&#9;l-2.9,29.1c-1.6,15.9,10.1,30.1,26,31.7c0.9,0.1,1.9,0.1,2.8,0.1h53.4c16,0,29-13,29-29c0-0.9,0-1.9-0.1-2.8l-2.9-29.1H197.3z"/>
</g>
<g id="desk_coding-1-29">
	<rect x="93.7" y="211.2" class="st1_coding-1-29" width="312.7" height="104.1"/>
	<path class="st0_coding-1-29" d="M406.4,316H93.7c-0.4,0-0.7-0.3-0.7-0.7l0,0V211.2c0-0.4,0.3-0.7,0.7-0.7h312.7c0.4,0,0.7,0.3,0.7,0.7&#10;&#9;&#9;c0,0,0,0,0,0v104.1C407,315.7,406.7,316,406.4,316z M94.4,314.6h311.3V211.9H94.3L94.4,314.6z"/>
</g>
<g id="keyboard_coding-1-29">
	<path class="st1_coding-1-29" d="M179.4,239.6h141.2c3.1,0,5.6,2.5,5.6,5.6V283c0,3.1-2.5,5.6-5.6,5.6H179.4c-3.1,0-5.6-2.5-5.6-5.6v-37.8&#10;&#9;&#9;C173.8,242.2,176.3,239.6,179.4,239.6z"/>
	<path class="st2_coding-1-29" d="M320.6,289.4H179.4c-3.5,0-6.3-2.8-6.3-6.3v-37.7c0-3.5,2.8-6.3,6.3-6.3h141.2c3.5,0,6.3,2.8,6.3,6.3V283&#10;&#9;&#9;C326.9,286.5,324.1,289.4,320.6,289.4z M179.4,240.4c-2.7,0-4.9,2.2-4.9,4.9V283c0,2.7,2.2,4.9,4.9,4.9h141.2&#10;&#9;&#9;c2.7,0,4.9-2.2,4.9-4.9v-37.7c0-2.7-2.2-4.9-4.9-4.9L179.4,240.4z"/>
	<rect x="183.5" y="245.9" class="st2_coding-1-29" width="10.9" height="5.5"/>
	<path class="st2_coding-1-29" d="M194.4,252.1h-10.9c-0.4,0-0.7-0.3-0.7-0.7v-5.5c0-0.4,0.3-0.7,0.7-0.7h10.9c0.4,0,0.7,0.3,0.7,0.7v5.5&#10;&#9;&#9;C195.1,251.8,194.8,252.1,194.4,252.1z M184.2,250.7h9.5v-4.1h-9.5V250.7z"/>
	<rect x="183.5" y="256.2" class="st1_coding-1-29" width="10.9" height="5.5"/>
	<path class="st2_coding-1-29" d="M194.4,262.4h-10.9c-0.4,0-0.7-0.3-0.7-0.7l0,0v-5.5c0-0.4,0.3-0.7,0.7-0.7h10.9c0.4,0,0.7,0.3,0.7,0.7v5.5&#10;&#9;&#9;C195.1,262.1,194.8,262.4,194.4,262.4C194.4,262.4,194.4,262.4,194.4,262.4z M184.2,261h9.5v-4.1h-9.5V261z"/>
	<rect x="183.5" y="266.6" class="st1_coding-1-29" width="10.9" height="5.5"/>
	<path class="st2_coding-1-29" d="M194.4,272.8h-10.9c-0.4,0-0.7-0.3-0.7-0.7l0,0v-5.5c0-0.4,0.3-0.7,0.7-0.7c0,0,0,0,0,0h10.9&#10;&#9;&#9;c0.4,0,0.7,0.3,0.7,0.7l0,0v5.5C195.1,272.5,194.8,272.8,194.4,272.8C194.4,272.8,194.4,272.8,194.4,272.8z M184.2,271.4h9.5v-4.1&#10;&#9;&#9;h-9.5V271.4z"/>
	<rect x="183.5" y="276.9" class="st1_coding-1-29" width="10.9" height="5.5"/>
	<path class="st2_coding-1-29" d="M194.4,283.1h-10.9c-0.4,0-0.7-0.3-0.7-0.7l0,0v-5.5c0-0.4,0.3-0.7,0.7-0.7c0,0,0,0,0,0h10.9&#10;&#9;&#9;c0.4,0,0.7,0.3,0.7,0.7l0,0v5.5C195.1,282.8,194.8,283.1,194.4,283.1C194.4,283.1,194.4,283.1,194.4,283.1z M184.2,281.7h9.5v-4.1&#10;&#9;&#9;h-9.5V281.7z"/>
	<rect x="200.9" y="245.9" class="st1_coding-1-29" width="10.9" height="5.5"/>
	<path class="st2_coding-1-29" d="M211.8,252.1h-10.9c-0.4,0-0.7-0.3-0.7-0.7v-5.5c0-0.4,0.3-0.7,0.7-0.7h10.9c0.4,0,0.7,0.3,0.7,0.7v5.5&#10;&#9;&#9;C212.5,251.8,212.2,252.1,211.8,252.1z M201.6,250.7h9.5v-4.1h-9.5V250.7z"/>
	<rect x="200.9" y="256.2" class="st1_coding-1-29" width="10.9" height="5.5"/>
	<path class="st2_coding-1-29" d="M211.8,262.4h-10.9c-0.4,0-0.7-0.3-0.7-0.7l0,0v-5.5c0-0.4,0.3-0.7,0.7-0.7h10.9c0.4,0,0.7,0.3,0.7,0.7v5.5&#10;&#9;&#9;C212.5,262.1,212.2,262.4,211.8,262.4C211.8,262.4,211.8,262.4,211.8,262.4z M201.6,261h9.5v-4.1h-9.5V261z"/>
	<rect x="200.9" y="266.6" class="st1_coding-1-29" width="10.9" height="5.5"/>
	<path class="st2_coding-1-29" d="M211.8,272.8h-10.9c-0.4,0-0.7-0.3-0.7-0.7l0,0v-5.5c0-0.4,0.3-0.7,0.7-0.7h10.9c0.4,0,0.7,0.3,0.7,0.7l0,0&#10;&#9;&#9;v5.5C212.5,272.5,212.2,272.8,211.8,272.8C211.8,272.8,211.8,272.8,211.8,272.8z M201.6,271.4h9.5v-4.1h-9.5V271.4z"/>
	<rect x="200.9" y="276.9" class="st1_coding-1-29" width="10.9" height="5.5"/>
	<path class="st2_coding-1-29" d="M211.8,283.1h-10.9c-0.4,0-0.7-0.3-0.7-0.7l0,0v-5.5c0-0.4,0.3-0.7,0.7-0.7c0,0,0,0,0,0h10.9&#10;&#9;&#9;c0.4,0,0.7,0.3,0.7,0.7l0,0v5.5C212.5,282.8,212.2,283.1,211.8,283.1C211.8,283.1,211.8,283.1,211.8,283.1z M201.6,281.7h9.5v-4.1&#10;&#9;&#9;h-9.5V281.7z"/>
	<rect x="218.4" y="245.9" class="st1_coding-1-29" width="10.9" height="5.5"/>
	<path class="st2_coding-1-29" d="M229.3,252.1h-10.9c-0.4,0-0.7-0.3-0.7-0.7v-5.5c0-0.4,0.3-0.7,0.7-0.7h10.9c0.4,0,0.7,0.3,0.7,0.7v5.5&#10;&#9;&#9;C230,251.8,229.7,252.1,229.3,252.1z M219.1,250.7h9.5v-4.1h-9.5V250.7z"/>
	<rect x="218.4" y="256.2" class="st1_coding-1-29" width="10.9" height="5.5"/>
	<path class="st2_coding-1-29" d="M229.3,262.4h-10.9c-0.4,0-0.7-0.3-0.7-0.7l0,0v-5.5c0-0.4,0.3-0.7,0.7-0.7h10.9c0.4,0,0.7,0.3,0.7,0.7v5.5&#10;&#9;&#9;C230,262.1,229.7,262.4,229.3,262.4C229.3,262.4,229.3,262.4,229.3,262.4z M219.1,261h9.5v-4.1h-9.5V261z"/>
	<rect x="218.4" y="266.6" class="st1_coding-1-29" width="10.9" height="5.5"/>
	<path class="st2_coding-1-29" d="M229.3,272.8h-10.9c-0.4,0-0.7-0.3-0.7-0.7l0,0v-5.5c0-0.4,0.3-0.7,0.7-0.7h10.9c0.4,0,0.7,0.3,0.7,0.7l0,0&#10;&#9;&#9;v5.5C230,272.5,229.7,272.8,229.3,272.8C229.3,272.8,229.3,272.8,229.3,272.8z M219.1,271.4h9.5v-4.1h-9.5V271.4z"/>
	<rect x="218.4" y="276.9" class="st2_coding-1-29" width="63.2" height="5.5"/>
	<path class="st2_coding-1-29" d="M281.6,283.1h-63.3c-0.4,0-0.7-0.3-0.7-0.7l0,0v-5.5c0-0.4,0.3-0.7,0.7-0.7c0,0,0,0,0,0h63.3&#10;&#9;&#9;c0.4,0,0.7,0.3,0.7,0.7v0v5.5C282.3,282.8,282,283.1,281.6,283.1L281.6,283.1z M219.1,281.7h61.9v-4.1h-61.9V281.7z"/>
	<rect x="235.8" y="245.9" class="st1_coding-1-29" width="10.9" height="5.5"/>
	<path class="st2_coding-1-29" d="M246.7,252.1h-10.9c-0.4,0-0.7-0.3-0.7-0.7v-5.5c0-0.4,0.3-0.7,0.7-0.7h10.9c0.4,0,0.7,0.3,0.7,0.7v5.5&#10;&#9;&#9;C247.4,251.8,247.1,252.1,246.7,252.1C246.7,252.1,246.7,252.1,246.7,252.1z M236.5,250.7h9.5v-4.1h-9.5L236.5,250.7z"/>
	<rect x="235.8" y="256.2" class="st1_coding-1-29" width="10.9" height="5.5"/>
	<path class="st2_coding-1-29" d="M246.7,262.4h-10.9c-0.4,0-0.7-0.3-0.7-0.7l0,0v-5.5c0-0.4,0.3-0.7,0.7-0.7h10.9c0.4,0,0.7,0.3,0.7,0.7v5.5&#10;&#9;&#9;C247.4,262.1,247.1,262.4,246.7,262.4C246.7,262.4,246.7,262.4,246.7,262.4z M236.5,261h9.5v-4.1h-9.5L236.5,261z"/>
	<rect x="235.8" y="266.6" class="st1_coding-1-29" width="10.9" height="5.5"/>
	<path class="st2_coding-1-29" d="M246.7,272.8h-10.9c-0.4,0-0.7-0.3-0.7-0.7l0,0v-5.5c0-0.4,0.3-0.7,0.7-0.7h10.9c0.4,0,0.7,0.3,0.7,0.7l0,0&#10;&#9;&#9;v5.5C247.4,272.5,247.1,272.8,246.7,272.8C246.7,272.8,246.7,272.8,246.7,272.8z M236.5,271.4h9.5v-4.1h-9.5L236.5,271.4z"/>
	<rect x="253.3" y="245.9" class="st1_coding-1-29" width="10.9" height="5.5"/>
	<path class="st2_coding-1-29" d="M264.2,252.1h-10.9c-0.4,0-0.7-0.3-0.7-0.7v-5.5c0-0.4,0.3-0.7,0.7-0.7h10.9c0.4,0,0.7,0.3,0.7,0.7&#10;&#9;&#9;c0,0,0,0,0,0v5.5C264.9,251.8,264.6,252.1,264.2,252.1z M254,250.7h9.5v-4.1H254V250.7z"/>
	<rect x="253.3" y="256.2" class="st1_coding-1-29" width="10.9" height="5.5"/>
	<path class="st2_coding-1-29" d="M264.2,262.4h-10.9c-0.4,0-0.7-0.3-0.7-0.7l0,0v-5.5c0-0.4,0.3-0.7,0.7-0.7h10.9c0.4,0,0.7,0.3,0.7,0.7v5.5&#10;&#9;&#9;C264.9,262.1,264.6,262.4,264.2,262.4L264.2,262.4z M254,261h9.5v-4.1H254V261z"/>
	<rect x="253.3" y="266.6" class="st1_coding-1-29" width="10.9" height="5.5"/>
	<path class="st2_coding-1-29" d="M264.2,272.8h-10.9c-0.4,0-0.7-0.3-0.7-0.7l0,0v-5.5c0-0.4,0.3-0.7,0.7-0.7c0,0,0,0,0,0h10.9&#10;&#9;&#9;c0.4,0,0.7,0.3,0.7,0.7v5.5C264.9,272.5,264.6,272.8,264.2,272.8L264.2,272.8z M254,271.4h9.5v-4.1H254V271.4z"/>
	<rect x="270.7" y="245.9" class="st1_coding-1-29" width="10.9" height="5.5"/>
	<path class="st2_coding-1-29" d="M281.6,252.1h-10.9c-0.4,0-0.7-0.3-0.7-0.7c0,0,0,0,0,0v-5.5c0-0.4,0.3-0.7,0.7-0.7l0,0h10.9&#10;&#9;&#9;c0.4,0,0.7,0.3,0.7,0.7c0,0,0,0,0,0v5.5C282.3,251.8,282,252.1,281.6,252.1z M271.4,250.7h9.5v-4.1h-9.5V250.7z"/>
	<rect x="270.7" y="256.2" class="st1_coding-1-29" width="10.9" height="5.5"/>
	<path class="st2_coding-1-29" d="M281.6,262.4h-10.9c-0.4,0-0.7-0.3-0.7-0.7v0v-5.5c0-0.4,0.3-0.7,0.7-0.7l0,0h10.9c0.4,0,0.7,0.3,0.7,0.7v5.5&#10;&#9;&#9;C282.3,262.1,282,262.4,281.6,262.4L281.6,262.4z M271.4,261h9.5v-4.1h-9.5V261z"/>
	<rect x="270.7" y="266.6" class="st1_coding-1-29" width="10.9" height="5.5"/>
	<path class="st2_coding-1-29" d="M281.6,272.8h-10.9c-0.4,0-0.7-0.3-0.7-0.7v0v-5.5c0-0.4,0.3-0.7,0.7-0.7h0h10.9c0.4,0,0.7,0.3,0.7,0.7v5.5&#10;&#9;&#9;C282.3,272.5,282,272.8,281.6,272.8L281.6,272.8z M271.4,271.4h9.5v-4.1h-9.5V271.4z"/>
	<rect x="288.2" y="245.9" class="st1_coding-1-29" width="10.9" height="5.5"/>
	<path class="st2_coding-1-29" d="M299.1,252.1h-10.9c-0.4,0-0.7-0.3-0.7-0.7c0,0,0,0,0,0v-5.5c0-0.4,0.3-0.7,0.7-0.7l0,0h10.9&#10;&#9;&#9;c0.4,0,0.7,0.3,0.7,0.7c0,0,0,0,0,0v5.5C299.8,251.8,299.5,252.1,299.1,252.1z M288.9,250.7h9.5v-4.1h-9.5V250.7z"/>
	<rect x="288.2" y="256.2" class="st1_coding-1-29" width="10.9" height="5.5"/>
	<path class="st2_coding-1-29" d="M299.1,262.4h-10.9c-0.4,0-0.7-0.3-0.7-0.7v0v-5.5c0-0.4,0.3-0.7,0.7-0.7l0,0h10.9c0.4,0,0.7,0.3,0.7,0.7v5.5&#10;&#9;&#9;C299.8,262.1,299.5,262.4,299.1,262.4C299.1,262.4,299.1,262.4,299.1,262.4z M288.9,261h9.5v-4.1h-9.5V261z"/>
	<rect x="288.2" y="266.6" class="st1_coding-1-29" width="10.9" height="5.5"/>
	<path class="st2_coding-1-29" d="M299.1,272.8h-10.9c-0.4,0-0.7-0.3-0.7-0.7v0v-5.5c0-0.4,0.3-0.7,0.7-0.7h0h10.9c0.4,0,0.7,0.3,0.7,0.7v5.5&#10;&#9;&#9;C299.8,272.5,299.5,272.8,299.1,272.8C299.1,272.8,299.1,272.8,299.1,272.8z M288.9,271.4h9.5v-4.1h-9.5V271.4z"/>
	<rect x="288.2" y="276.9" class="st1_coding-1-29" width="10.9" height="5.5"/>
	<path class="st2_coding-1-29" d="M299.1,283.1h-10.9c-0.4,0-0.7-0.3-0.7-0.7v0v-5.5c0-0.4,0.3-0.7,0.7-0.7h0h10.9c0.4,0,0.7,0.3,0.7,0.7v0v5.5&#10;&#9;&#9;C299.8,282.8,299.5,283.1,299.1,283.1C299.1,283.1,299.1,283.1,299.1,283.1z M288.9,281.7h9.5v-4.1h-9.5V281.7z"/>
	<rect x="305.6" y="245.9" class="st1_coding-1-29" width="10.9" height="5.5"/>
	<path class="st2_coding-1-29" d="M316.5,252.1h-10.9c-0.4,0-0.7-0.3-0.7-0.7c0,0,0,0,0,0v-5.5c0-0.4,0.3-0.7,0.7-0.7l0,0h10.9&#10;&#9;&#9;c0.4,0,0.7,0.3,0.7,0.7c0,0,0,0,0,0v5.5C317.2,251.8,316.9,252.1,316.5,252.1L316.5,252.1z M306.3,250.7h9.5v-4.1h-9.5V250.7z"/>
	<rect x="305.6" y="256.2" class="st1_coding-1-29" width="10.9" height="5.5"/>
	<path class="st2_coding-1-29" d="M316.5,262.4h-10.9c-0.4,0-0.7-0.3-0.7-0.7v0v-5.5c0-0.4,0.3-0.7,0.7-0.7l0,0h10.9c0.4,0,0.7,0.3,0.7,0.7l0,0&#10;&#9;&#9;v5.5C317.2,262.1,316.9,262.4,316.5,262.4L316.5,262.4z M306.3,261h9.5v-4.1h-9.5V261z"/>
	<rect x="305.6" y="266.6" class="st1_coding-1-29" width="10.9" height="5.5"/>
	<path class="st2_coding-1-29" d="M316.5,272.8h-10.9c-0.4,0-0.7-0.3-0.7-0.7v0v-5.5c0-0.4,0.3-0.7,0.7-0.7h0h10.9c0.4,0,0.7,0.3,0.7,0.7v0v5.5&#10;&#9;&#9;C317.2,272.5,316.9,272.8,316.5,272.8L316.5,272.8z M306.3,271.4h9.5v-4.1h-9.5V271.4z"/>
	<rect x="305.6" y="276.9" class="st1_coding-1-29" width="10.9" height="5.5"/>
	<path class="st2_coding-1-29" d="M316.5,283.1h-10.9c-0.4,0-0.7-0.3-0.7-0.7v0v-5.5c0-0.4,0.3-0.7,0.7-0.7h0h10.9c0.4,0,0.7,0.3,0.7,0.7v0v5.5&#10;&#9;&#9;C317.2,282.8,316.9,283.1,316.5,283.1L316.5,283.1z M306.3,281.7h9.5v-4.1h-9.5V281.7z"/>
</g>
<g id="Character_coding-1-29">
	<path class="st1_coding-1-29" d="M281.8,278.2c0,0-12.6-8.6-11.5-10.4s9.7,2.1,9.7,2.1s-2-8.3-3.1-9.9s-3.7-4.3-3.7-5.2s0.9-2.2,1.7-1.8&#10;&#9;&#9;s5.2,4,5.5,4.9s0.9,2.6,0.9,2.6s0.4-5-1-6.4s-3.4-3.1-3.4-3.8s1.4-2.4,2.2-2s4.2,3.4,4.8,4.5c0.7,2.3,1.3,4.6,1.7,7&#10;&#9;&#9;c0,0,0.8-5.3,0.2-6.6s-3-3.5-1.2-5.1s4.8,7.4,5.1,9.7c0-1.9,0.1-3.8,0.2-5.7c0.1-1.7,0.6-2.7,2.1-1.1c0.7,1,1.1,2.1,1.1,3.3&#10;&#9;&#9;c0.3,4.4-0.6,8.8-1,13.2c-0.5,5.5,1.5,10.5,2.9,15.8c1.6,6.1,3.2,12.3,4.8,18.4c1.5,5.8,2.9,11.7,4.1,17.5c0.6,2.9,1.9,6.8,1.4,9.8&#10;&#9;&#9;c-0.9,5.4-20.5,18.3-20.5,18.3L281.8,278.2z"/>
	<path class="st0_coding-1-29" d="M284.6,348c-0.1,0-0.2,0-0.3-0.1c-0.2-0.1-0.4-0.3-0.4-0.6l-2.8-68.8c-6-4-12.6-9.2-11.5-11.2s6.1-0.1,9.3,1.3&#10;&#9;&#9;c-0.8-3.2-2-7.3-2.7-8.3c-0.4-0.5-1-1.2-1.5-1.9c-1.5-1.8-2.4-2.9-2.4-3.7c0-0.9,0.5-1.8,1.2-2.4c0.4-0.3,1-0.3,1.5-0.1&#10;&#9;&#9;c2,1.3,3.7,2.9,5.4,4.6c0-0.8-0.3-1.6-0.7-2.2l-0.4-0.4c-2.2-2-3.2-3.1-3.2-4c0.2-1,0.9-1.9,1.8-2.5c0.4-0.3,1-0.3,1.5-0.1&#10;&#9;&#9;c1,0.5,4.4,3.5,5.1,4.9c0.3,0.9,0.6,1.8,0.8,2.8c0.1-0.6,0-1.2-0.2-1.8c-0.2-0.3-0.4-0.6-0.6-0.9c-0.9-1.2-2.3-3.3-0.5-5&#10;&#9;&#9;c0.4-0.4,0.9-0.5,1.4-0.3c1.4,0.5,2.7,3.3,3.6,5.9c0-0.4,0-0.8,0-1.1c0-0.9,0.2-2.1,1.1-2.5s1.9,0.6,2.2,1c0.8,1.1,1.3,2.4,1.3,3.7&#10;&#9;&#9;c0.1,3.1,0,6.1-0.5,9.2c-0.2,1.4-0.3,2.8-0.5,4.1c-0.4,4.3,0.8,8.3,2,12.5c0.3,1,0.6,2,0.9,3c1.8,6.7,3.3,12.7,4.8,18.5&#10;&#9;&#9;c1.6,6.5,3,12,4.1,17.6c0.1,0.7,0.3,1.4,0.5,2.1c0.6,2.6,1.4,5.5,0.9,8c-0.9,5.5-18.8,17.4-20.8,18.7&#10;&#9;&#9;C284.9,347.9,284.8,348,284.6,348z M271.5,268c-0.3,0-0.5,0.1-0.6,0.2c0.1,1.1,5.9,5.8,11.3,9.5c0.2,0.1,0.3,0.3,0.3,0.5l2.8,67.8&#10;&#9;&#9;c6-4,18.5-13.2,19.2-17.1c0.4-2.2-0.3-5-0.9-7.4c-0.2-0.8-0.4-1.5-0.5-2.1c-1.2-5.6-2.5-11-4.1-17.5c-1.4-5.7-3-11.7-4.8-18.4&#10;&#9;&#9;c-0.3-1-0.5-2-0.8-3c-1.2-4.1-2.4-8.4-2.1-13c0.1-1.4,0.3-2.8,0.5-4.2c0.5-2.9,0.6-5.9,0.5-8.9c0-1-0.3-2.1-0.9-2.9&#10;&#9;&#9;c-0.2-0.2-0.4-0.4-0.7-0.6c-0.1,0.4-0.2,0.8-0.2,1.2c-0.1,1.3-0.1,2.5-0.1,3.8c0,0.6,0,1.3,0,1.9c0,0.4-0.3,0.7-0.7,0.7&#10;&#9;&#9;c-0.4,0-0.7-0.2-0.7-0.6c-0.4-2.6-2.9-9.1-4-9.3c-0.8,0.8-0.4,1.6,0.7,3.2c0.3,0.3,0.5,0.7,0.7,1.1c0.7,1.4,0,6.1-0.1,7&#10;&#9;&#9;c0,0.3-0.3,0.6-0.7,0.6c-0.3,0-0.6-0.2-0.7-0.6c-0.4-2.3-1-4.6-1.6-6.8c-1.3-1.6-2.7-3-4.4-4.2c-0.3,0-1.2,1-1.2,1.4&#10;&#9;&#9;c0.8,1,1.7,2,2.8,2.9l0.4,0.4c1.6,1.5,1.3,6.1,1.2,6.9c0,0.3-0.3,0.6-0.6,0.6c-0.3,0-0.6-0.1-0.8-0.5c0,0-0.7-1.8-0.9-2.7&#10;&#9;&#9;c-0.3-0.7-4.4-4.1-5.1-4.5c0,0-0.1,0-0.2,0.1c-0.3,0.3-0.4,0.7-0.5,1.1c0.5,1,1.2,2,2,2.8c0.6,0.7,1.1,1.4,1.6,2&#10;&#9;&#9;c1.2,1.7,3,9.3,3.2,10.2c0.1,0.4-0.1,0.8-0.5,0.9c-0.2,0-0.3,0-0.5-0.1C276.1,268.9,272.8,268,271.5,268z"/>
	<path class="st1_coding-1-29" d="M215.2,321.3l11.9-47.5c0,0,7.7-2.9,8.6-6.5s-6.1,0-6.1,0l2.5-8.3c0,0,2.2,4.4,3.6,2.1s-2.8-10.9-4.5-10.7&#10;&#9;&#9;s-11.3,3.6-11.9,5.2c-0.6,1.7-2.3,13.8-2.3,13.8s-24.9,44.8-24.9,47.9S215.2,321.3,215.2,321.3z"/>
	<path class="st0_coding-1-29" d="M215.2,322L215.2,322c-8.8-0.3-23.6-1.4-23.6-4.7s22.1-43,24.9-48.1c0.2-1.7,1.7-12.2,2.3-13.8&#10;&#9;&#9;c0.8-2.2,11-5.5,12.5-5.7c0.8-0.1,1.7,0.6,2.7,2.2c1.5,2.3,3.7,7.4,2.4,9.5c-0.3,0.6-0.9,1-1.6,1c-1-0.2-1.9-0.9-2.4-1.8l-1.7,5.4&#10;&#9;&#9;c1.6-0.7,4-1.4,5.1-0.6c0.6,0.5,0.8,1.3,0.5,2c-0.8,3.5-7,6.2-8.7,6.8l-11.9,47.2C215.9,321.8,215.6,322,215.2,322z M231.4,251.1&#10;&#9;&#9;c-1.8,0.2-10.8,3.6-11.3,4.8c-0.6,1.2-1.8,10.3-2.3,13.6c0,0.1,0,0.2-0.1,0.2c-9.6,17.2-24.8,45.3-24.8,47.6&#10;&#9;&#9;c0.4,1.3,10.3,2.8,21.7,3.3l11.8-47c0.1-0.2,0.2-0.4,0.4-0.5c2.1-0.8,7.5-3.4,8.1-6c0.1-0.3,0.1-0.6,0-0.6c-0.5-0.4-3.1,0.4-5,1.4&#10;&#9;&#9;c-0.3,0.2-0.8,0.1-0.9-0.3c-0.1-0.2-0.1-0.4-0.1-0.5l2.5-8.4c0.1-0.3,0.3-0.5,0.6-0.5c0.3,0,0.6,0.1,0.7,0.4c0.6,1.1,1.5,2.4,2,2.4&#10;&#9;&#9;c0.1,0,0.3-0.2,0.4-0.3c0.4-0.6,0.2-2.5-1-5.3S231.8,251.2,231.4,251.1L231.4,251.1z"/>
	<path class="st3_coding-1-29 targetColor" d="M281.7,317.9l-3.8,9c0,0-37.1-5.1-58.2,3l-0.9-13.4l-27.3-5c-1.1,3-0.8,44.3,5.5,60.1s27.1,29.3,69.6,21.4&#10;&#9;&#9;c0,0,31.7-12.5,38.6-29c4.4-10.5,4.2-36.5,3.3-50.6L281.7,317.9z" style="fill: rgb(104, 225, 253);"/>
	<path class="st1_coding-1-29" d="M217.7,357.7c0,1.5,0.4,2.9,0.9,4.2c0.3,0.9,1.1,1.6,2.1,1.8c1.4,0.1,2.3-1.4,2.8-2.7&#10;&#9;&#9;c1.4-3.9,3.6-11.9-1.3-14.3C216.5,344,217.4,354.6,217.7,357.7z"/>
	<path class="st0_coding-1-29" d="M220.8,364.5h-0.2c-1.2-0.2-2.3-1-2.7-2.2c-0.6-1.4-0.9-2.9-1-4.5l0,0v-0.3c-0.4-4.8-0.4-9.8,2-11.4&#10;&#9;&#9;c1.1-0.7,2.5-0.6,3.6,0.1c5.6,2.7,3,11.5,1.7,15.2C223.4,363.4,222.2,364.5,220.8,364.5z M218.4,357.7c0,1.4,0.3,2.7,0.9,4&#10;&#9;&#9;c0.1,0.3,0.7,1.4,1.6,1.4c1.1,0.1,1.9-1.7,2.1-2.2c1.2-3.3,3.6-11.2-1-13.5c-1.4-0.7-2-0.3-2.2-0.2c-2,1.4-1.5,8-1.4,10.1&#10;&#9;&#9;L218.4,357.7z"/>
	<path class="st1_coding-1-29" d="M270.2,355.3c0,1.5,0.4,2.9,0.9,4.2c0.3,0.9,1.2,1.6,2.1,1.8c1.4,0.1,2.3-1.4,2.8-2.7&#10;&#9;&#9;c1.4-3.9,3.6-11.9-1.3-14.3C269,341.5,270,352.2,270.2,355.3z"/>
	<path class="st0_coding-1-29" d="M273.4,362.1h-0.2c-1.2-0.2-2.3-1-2.7-2.2c-0.6-1.4-0.9-2.9-1-4.5v-0.3c-0.4-4.8-0.4-9.8,2-11.4&#10;&#9;&#9;c1.1-0.7,2.5-0.6,3.6,0.1c5.6,2.7,3,11.5,1.7,15.2C276,360.9,274.8,362.1,273.4,362.1z M273,344.6c-0.3,0-0.5,0.1-0.8,0.2&#10;&#9;&#9;c-2,1.4-1.5,8-1.4,10.1v0.3l0,0c0,1.4,0.3,2.7,0.9,4c0.2,0.3,0.7,1.4,1.5,1.4c1.1,0,1.9-1.7,2.1-2.2c1.2-3.3,3.6-11.2-1-13.5&#10;&#9;&#9;C273.9,344.8,273.5,344.6,273,344.6z"/>
	<path class="st1_coding-1-29" d="M274.6,353.1c0,0-3.5-14.1-12.5-21.1s-21.6-6.2-26.8-2.4s-15,15-13,33S274.6,353.1,274.6,353.1z"/>
	<path class="st0_coding-1-29" d="M231.1,369.4c-2,0.1-4-0.3-5.9-1.2c-2.1-1.1-3.5-3.2-3.6-5.6c-2-17.8,7.4-29.5,13.3-33.6&#10;&#9;&#9;c5.3-3.7,18.1-5,27.7,2.4c9.1,7.1,12.6,20.9,12.8,21.5c0.1,0.3-0.1,0.6-0.4,0.8C273.6,354.4,246,369.4,231.1,369.4z M246.2,327.4&#10;&#9;&#9;c-4.4,0-8.3,1.1-10.6,2.8c-5.6,4-14.6,15.2-12.7,32.4c0.1,1.9,1.2,3.6,2.9,4.5c10.4,5.4,43.5-11.9,48-14.2&#10;&#9;&#9;c-0.7-2.6-4.4-14.2-12.1-20.2C257.3,329.1,251.8,327.3,246.2,327.4L246.2,327.4z"/>
	<path class="st1_coding-1-29" d="M259.8,348.6c-3.4,1-6.6,2.5-10,3.8c0.7-3,4.6-6.5,6.6-8.6c-7.9-1.9-17.4,0.9-23.8,5.7l2.9-5.8&#10;&#9;&#9;c-8.3,3-14.8,9.4-17.9,17.7c-5.5,14.6,1.3,32.4,15.7,38.6c12,5.1,27.7,3.4,37.6-5.2c5.4-4.7,8.5-11.5,9.5-18.5c1-7.2,0.5-16-3-22.5&#10;&#9;&#9;c-1.8-3.3-4.5-6.3-8.4-6.7c-2.4-0.1-4.7,0.2-7,0.9C261.3,348.2,260.6,348.4,259.8,348.6z"/>
	<path class="st0_coding-1-29" d="M248,403.5c-5.1,0-10.1-1-14.8-3c-14.4-6.2-21.8-24.2-16.1-39.5c3.1-8.4,9.8-15.1,18.3-18.1&#10;&#9;&#9;c0.4-0.1,0.8,0.1,0.9,0.4c0.1,0.2,0.1,0.4,0,0.6l-1.7,3.5c6.9-4.3,15.3-6,22.1-4.3c0.4,0.1,0.6,0.5,0.5,0.8c0,0.1-0.1,0.2-0.2,0.3&#10;&#9;&#9;l-1.1,1.1c-1.9,1.7-3.5,3.7-4.8,5.8l2.2-0.9c2.1-0.8,4.2-1.7,6.3-2.3l0,0c0.8-0.2,1.5-0.5,2.3-0.7c2.4-0.8,4.8-1.1,7.3-1&#10;&#9;&#9;c3.5,0.4,6.6,2.8,8.9,7c3.2,5.8,4.3,14.3,3.1,22.9c-1.1,7.7-4.5,14.5-9.7,19C265.3,400.7,256.7,403.5,248,403.5z M234.2,345&#10;&#9;&#9;c-7.3,3.2-13,9.2-15.8,16.7c-5.5,14.5,1.6,31.8,15.3,37.7c12.3,5.2,27.4,3.1,36.9-5.1c4.9-4.3,8.2-10.7,9.3-18.1&#10;&#9;&#9;c1.2-8.3,0.1-16.5-3-22c-1.5-2.6-4-5.9-7.9-6.3c-2.3-0.1-4.6,0.2-6.8,0.9c-0.7,0.2-1.5,0.4-2.2,0.7l0,0c-2.1,0.6-4.2,1.5-6.2,2.3&#10;&#9;&#9;c-1.2,0.5-2.4,1-3.7,1.4c-0.4,0.1-0.8-0.1-0.9-0.4c0-0.1-0.1-0.3,0-0.4c0.6-2.7,3.6-5.7,5.7-7.8l0.2-0.2c-7.9-1.4-16.6,1.8-22,5.8&#10;&#9;&#9;c-0.3,0.2-0.6,0.2-0.9,0c-0.2-0.2-0.3-0.6-0.2-0.9L234.2,345z"/>
	<path class="st1_coding-1-29" d="M242.6,335.9c0,0,1.6-10,3.4-11.1s3.5,4.6,3.5,4.6"/>
	<path class="st0_coding-1-29" d="M242.6,336.6h-0.1c-0.4-0.1-0.6-0.4-0.6-0.8c0.4-2.4,1.8-10.4,3.7-11.6c0.4-0.3,1-0.3,1.4-0.2&#10;&#9;&#9;c1.7,0.6,2.9,4.4,3.1,5.2c0.1,0.4-0.1,0.7-0.4,0.9c0,0,0,0,0,0c-0.4,0.1-0.8-0.1-0.9-0.5c-0.6-1.8-1.6-4-2.3-4.3&#10;&#9;&#9;c-0.1,0-0.1,0-0.2,0c-1,0.6-2.4,6-3.1,10.7C243.3,336.3,243,336.6,242.6,336.6z"/>
	<circle class="st0_coding-1-29" cx="256.2" cy="333.1" r="1.4"/>
	<circle class="st0_coding-1-29" cx="235.3" cy="335" r="1.4"/>
	<path class="st0_coding-1-29" d="M288.2,334.5c-0.2,0-0.5-0.1-0.6-0.3c-2.5-4-10.2-5.6-10.3-5.6c-0.4-0.1-0.6-0.5-0.5-0.8c0,0,0,0,0,0&#10;&#9;&#9;c0.1-0.4,0.4-0.6,0.8-0.5c0,0,0,0,0,0c0.4,0.1,8.5,1.8,11.2,6.2c0.2,0.3,0.1,0.8-0.2,1c0,0,0,0,0,0&#10;&#9;&#9;C288.5,334.5,288.4,334.5,288.2,334.5z"/>
	<path class="st0_coding-1-29" d="M208.7,332.8c-0.2,0-0.4-0.1-0.6-0.3c-0.2-0.3-0.2-0.7,0.1-1c0,0,0,0,0,0c4.8-3.8,11.4-2.3,11.6-2.3&#10;&#9;&#9;c0.4,0.1,0.6,0.5,0.5,0.8c-0.1,0.4-0.5,0.6-0.8,0.5c-0.1,0-6.2-1.4-10.5,2C209,332.7,208.8,332.8,208.7,332.8z"/>
	<path class="st0_coding-1-29" d="M218.7,328.8c-0.2,0-0.4-0.1-0.5-0.2c-0.1-0.1-6.1-7-13.1-6.5c-0.4,0-0.7-0.3-0.7-0.7s0.3-0.7,0.7-0.7&#10;&#9;&#9;c7.7-0.5,14,6.7,14.3,7c0.3,0.3,0.2,0.7-0.1,1c0,0,0,0,0,0C219.1,328.7,218.9,328.8,218.7,328.8z"/>
	<path class="st0_coding-1-29" d="M299.8,329.7h-0.1c-0.2,0-16.3-3.2-20.8-2.1c-0.4,0.1-0.8-0.1-0.9-0.5c-0.1-0.4,0.1-0.7,0.5-0.8c0,0,0,0,0,0&#10;&#9;&#9;c4.9-1.3,20.8,1.9,21.4,2c0.4,0.1,0.6,0.5,0.5,0.8C300.4,329.5,300.1,329.7,299.8,329.7L299.8,329.7z"/>
	<path class="st2_coding-1-29" d="M250,393.5L250,393.5c-0.4,0-0.7-0.4-0.6-0.7c0-0.3,0.5-7,9-12.8c0.3-0.2,0.8-0.1,1,0.3&#10;&#9;&#9;c0.2,0.3,0.1,0.7-0.2,0.9c-7.9,5.4-8.4,11.6-8.4,11.7C250.7,393.3,250.4,393.5,250,393.5z"/>
	<path class="st2_coding-1-29" d="M246.1,393.5H246c-0.1,0-10.3-2-11.4-10.8c0-0.4,0.2-0.7,0.6-0.8c0.4,0,0.7,0.2,0.8,0.6l0,0&#10;&#9;&#9;c1,7.8,10.2,9.6,10.3,9.6c0.4,0.1,0.6,0.4,0.6,0.8C246.8,393.3,246.5,393.6,246.1,393.5L246.1,393.5z"/>
</g>
<g id="coffee_cup_coding-1-29">
	<circle class="st1_coding-1-29" cx="136.1" cy="264.9" r="18.2"/>
	<path class="st2_coding-1-29" d="M136.1,283.9c-10.4,0-18.9-8.5-18.9-18.9c0-10.4,8.5-18.9,18.9-18.9s18.9,8.5,18.9,18.9c0,0,0,0,0,0&#10;&#9;&#9;C155,275.4,146.5,283.8,136.1,283.9z M136.1,247.4c-9.7,0-17.5,7.8-17.5,17.5c0,9.7,7.8,17.5,17.5,17.5c9.7,0,17.5-7.8,17.5-17.5&#10;&#9;&#9;c0,0,0,0,0,0C153.6,255.3,145.8,247.4,136.1,247.4L136.1,247.4z"/>
	<path class="st1_coding-1-29" d="M144.1,278.2L144.1,278.2c-0.9,0.5-2,0.2-2.5-0.6l-2.2-3.8c-0.5-0.9-0.2-2,0.7-2.4l0,0c0.9-0.5,2-0.2,2.4,0.7&#10;&#9;&#9;l2.2,3.8C145.3,276.6,145,277.7,144.1,278.2z"/>
	<path class="st2_coding-1-29" d="M143.2,279.2c-0.2,0-0.4,0-0.6-0.1c-0.6-0.2-1.2-0.6-1.5-1.2l-2.2-3.8c-0.3-0.6-0.4-1.3-0.2-1.9&#10;&#9;&#9;c0.2-0.6,0.6-1.2,1.2-1.5c1.2-0.7,2.7-0.3,3.4,0.9l2.2,3.8c0.3,0.6,0.4,1.3,0.2,1.9c-0.2,0.6-0.6,1.2-1.2,1.5&#10;&#9;&#9;C144.1,279.1,143.6,279.2,143.2,279.2z M141,271.8c-0.2,0-0.4,0.1-0.6,0.1c-0.3,0.1-0.4,0.4-0.5,0.7c-0.1,0.3,0,0.6,0.1,0.8&#10;&#9;&#9;l2.2,3.8c0.1,0.3,0.4,0.4,0.7,0.5c0.3,0.1,0.6,0,0.8-0.1l0,0c0.5-0.3,0.7-1,0.4-1.5c0,0,0,0,0,0l-2.1-3.8&#10;&#9;&#9;C141.8,272,141.4,271.8,141,271.8z"/>
	<circle class="st1_coding-1-29" cx="136.1" cy="264.4" r="11.4"/>
	<path class="st2_coding-1-29" d="M136.1,276.6c-4.3,0-8.3-2.3-10.5-6l0,0c-3.4-5.8-1.4-13.2,4.4-16.6c5.8-3.4,13.2-1.4,16.6,4.4&#10;&#9;&#9;c3.4,5.8,1.4,13.2-4.4,16.6C140.3,276,138.2,276.6,136.1,276.6z M126.8,269.8c3,5.1,9.5,6.9,14.7,3.9c5.1-3,6.9-9.5,3.9-14.7&#10;&#9;&#9;c-3-5.1-9.5-6.9-14.7-3.9c-5.1,2.9-6.9,9.4-4,14.5C126.8,269.7,126.8,269.8,126.8,269.8z"/>
	<circle class="st2_coding-1-29" cx="136.6" cy="265.3" r="9.4"/>
</g>
<g id="mouse_coding-1-29">
	<path class="st1_coding-1-29" d="M360,259.1L360,259.1c5.7,0,10.3,4.6,10.3,10.3v8.4c0,5.7-4.6,10.3-10.3,10.3h0c-5.7,0-10.3-4.6-10.3-10.3&#10;&#9;&#9;v-8.4C349.7,263.7,354.3,259.1,360,259.1z"/>
	<path class="st2_coding-1-29" d="M360.1,288.9c-6.1,0-11-4.9-11-11v-8.4c0-6.1,4.9-11,11-11s11,4.9,11,11l0,0v8.4&#10;&#9;&#9;C371.1,284,366.2,288.9,360.1,288.9C360.1,288.9,360.1,288.9,360.1,288.9z M360.1,259.8c-5.3,0-9.6,4.3-9.6,9.6v8.4&#10;&#9;&#9;c0.2,5.3,4.6,9.5,9.9,9.3c5.1-0.2,9.2-4.2,9.3-9.3v-8.4C369.7,264.1,365.4,259.8,360.1,259.8z"/>
	<path class="st2_coding-1-29" d="M370.4,270.1h-20.7c-0.4,0-0.7-0.3-0.7-0.7s0.3-0.7,0.7-0.7c0,0,0,0,0,0h20.7c0.4,0,0.7,0.3,0.7,0.7&#10;&#9;&#9;S370.8,270.1,370.4,270.1C370.4,270.1,370.4,270.1,370.4,270.1z"/>
	<path class="st2_coding-1-29" d="M360.1,267.1c-0.4,0-0.7-0.3-0.7-0.7v0v-7.3c0-0.4,0.3-0.7,0.7-0.7c0.4,0,0.7,0.3,0.7,0.7v7.3&#10;&#9;&#9;C360.8,266.8,360.4,267.1,360.1,267.1z"/>
</g>
<g id="coding_screen_coding-1-29">
	<rect x="121.6" y="88.2" class="st1_coding-1-29" width="256.8" height="143.1"/>
	<path class="st0_coding-1-29" d="M378.4,232.1H121.6c-0.4,0-0.7-0.3-0.7-0.7V88.2c0-0.4,0.3-0.7,0.7-0.7h256.8c0.4,0,0.7,0.3,0.7,0.7v0v143.1&#10;&#9;&#9;C379.1,231.8,378.8,232.1,378.4,232.1L378.4,232.1z M122.3,230.7h255.4V88.9H122.3L122.3,230.7z"/>
	<path class="st2_coding-1-29" d="M376.5,103.3H123.6c-0.4,0-0.7-0.3-0.7-0.7c0-0.4,0.3-0.7,0.7-0.7h252.9c0.4,0,0.7,0.3,0.7,0.7&#10;&#9;&#9;C377.2,103,376.8,103.3,376.5,103.3L376.5,103.3z"/>
	<circle class="st2_coding-1-29" cx="130.2" cy="95" r="2.2"/>
	<circle class="st2_coding-1-29" cx="139.4" cy="95" r="2.2"/>
	<circle class="st2_coding-1-29" cx="148.6" cy="95" r="2.2"/>
	<path class="st0_coding-1-29" d="M169.9,116h-15.7c-0.4,0-0.7-0.3-0.7-0.7c0-0.4,0.3-0.7,0.7-0.7h15.7c0.4,0,0.7,0.3,0.7,0.7&#10;&#9;&#9;C170.6,115.7,170.3,116,169.9,116L169.9,116z"/>
	<path class="st3_coding-1-29 targetColor" d="M209.4,116h-31.2c-0.4,0-0.7-0.3-0.7-0.7c0-0.4,0.3-0.7,0.7-0.7h31.2c0.4,0,0.7,0.3,0.7,0.7&#10;&#9;&#9;C210.1,115.7,209.8,116,209.4,116z" style="fill: rgb(104, 225, 253);"/>
	<path class="st3_coding-1-29 targetColor" d="M218.8,126.4h-31.2c-0.4,0-0.7-0.3-0.7-0.7c0-0.4,0.3-0.7,0.7-0.7h31.2c0.4,0,0.7,0.3,0.7,0.7&#10;&#9;&#9;C219.5,126.1,219.2,126.4,218.8,126.4L218.8,126.4z" style="fill: rgb(104, 225, 253);"/>
	<path class="st0_coding-1-29" d="M173.6,126.4H158c-0.4,0-0.7-0.3-0.7-0.7c0-0.4,0.3-0.7,0.7-0.7h15.6c0.4,0,0.7,0.3,0.7,0.7&#10;&#9;&#9;C174.3,126.1,174,126.4,173.6,126.4z"/>
	<path class="st0_coding-1-29" d="M174.2,136.8h-12.6c-0.4,0-0.7-0.3-0.7-0.7c0-0.4,0.3-0.7,0.7-0.7c0,0,0,0,0,0h12.6c0.4,0,0.7,0.3,0.7,0.7&#10;&#9;&#9;C174.9,136.5,174.6,136.8,174.2,136.8z"/>
	<path class="st3_coding-1-29 targetColor" d="M224.4,136.8h-39.1c-0.4,0-0.7-0.3-0.7-0.7c0-0.4,0.3-0.7,0.7-0.7h39.1c0.4,0,0.7,0.3,0.7,0.7&#10;&#9;&#9;C225.1,136.5,224.8,136.8,224.4,136.8L224.4,136.8z" style="fill: rgb(104, 225, 253);"/>
	<path class="st0_coding-1-29" d="M181,147.2h-15.7c-0.4,0-0.7-0.3-0.7-0.7c0-0.4,0.3-0.7,0.7-0.7c0,0,0,0,0,0H181c0.4,0,0.7,0.3,0.7,0.7&#10;&#9;&#9;C181.7,146.9,181.4,147.2,181,147.2z"/>
	<path class="st3_coding-1-29 targetColor" d="M232.5,147.2H186c-0.4,0-0.7-0.3-0.7-0.7c0-0.4,0.3-0.7,0.7-0.7c0,0,0,0,0,0h46.5c0.4,0,0.7,0.3,0.7,0.7&#10;&#9;&#9;C233.2,146.9,232.9,147.2,232.5,147.2L232.5,147.2z" style="fill: rgb(104, 225, 253);"/>
	<path class="st0_coding-1-29" d="M176.8,157.6h-15.7c-0.4,0-0.7-0.3-0.7-0.7c0-0.4,0.3-0.7,0.7-0.7c0,0,0,0,0,0h15.7c0.4,0,0.7,0.3,0.7,0.7&#10;&#9;&#9;C177.5,157.3,177.2,157.6,176.8,157.6C176.8,157.6,176.8,157.6,176.8,157.6z"/>
	<path class="st3_coding-1-29 targetColor" d="M208,157.6h-25.2c-0.4,0-0.7-0.3-0.7-0.7c0-0.4,0.3-0.7,0.7-0.7c0,0,0,0,0,0H208c0.4,0,0.7,0.3,0.7,0.7&#10;&#9;&#9;C208.7,157.3,208.4,157.6,208,157.6C208,157.6,208,157.6,208,157.6z" style="fill: rgb(104, 225, 253);"/>
	<path class="st3_coding-1-29 targetColor" d="M242.8,157.6h-25.2c-0.4,0-0.7-0.3-0.7-0.7c0-0.4,0.3-0.7,0.7-0.7h25.2c0.4,0,0.7,0.3,0.7,0.7&#10;&#9;&#9;C243.5,157.3,243.2,157.6,242.8,157.6C242.8,157.6,242.8,157.6,242.8,157.6z" style="fill: rgb(104, 225, 253);"/>
	<path class="st0_coding-1-29" d="M166.5,168h-5.4c-0.4,0-0.7-0.3-0.7-0.7c0-0.4,0.3-0.7,0.7-0.7c0,0,0,0,0,0h5.4c0.4,0,0.7,0.3,0.7,0.7&#10;&#9;&#9;C167.2,167.7,166.9,168,166.5,168z"/>
	<path class="st3_coding-1-29 targetColor" d="M208,168h-32.3c-0.4,0-0.7-0.3-0.7-0.7c0-0.4,0.3-0.7,0.7-0.7H208c0.4,0,0.7,0.3,0.7,0.7&#10;&#9;&#9;C208.7,167.7,208.4,168,208,168C208,168,208,168,208,168z" style="fill: rgb(104, 225, 253);"/>
	<path class="st3_coding-1-29 targetColor" d="M220.7,168h-9c-0.4,0-0.7-0.3-0.7-0.7c0-0.4,0.3-0.7,0.7-0.7h9c0.4,0,0.7,0.3,0.7,0.7&#10;&#9;&#9;C221.4,167.7,221.1,168,220.7,168C220.7,168,220.7,168,220.7,168z" style="fill: rgb(104, 225, 253);"/>
	<path class="st0_coding-1-29" d="M169.6,178.4h-8.5c-0.4,0-0.7-0.3-0.7-0.7c0-0.4,0.3-0.7,0.7-0.7h8.5c0.4,0,0.7,0.3,0.7,0.7&#10;&#9;&#9;C170.3,178.1,170,178.4,169.6,178.4C169.6,178.4,169.6,178.4,169.6,178.4z"/>
	<path class="st3_coding-1-29 targetColor" d="M215.9,178.4h-38.3c-0.4,0-0.7-0.3-0.7-0.7c0-0.4,0.3-0.7,0.7-0.7c0,0,0,0,0,0h38.3c0.4,0,0.7,0.3,0.7,0.7&#10;&#9;&#9;C216.6,178.1,216.3,178.4,215.9,178.4C215.9,178.4,215.9,178.4,215.9,178.4z" style="fill: rgb(104, 225, 253);"/>
	<path class="st3_coding-1-29 targetColor" d="M235.3,178.4h-15.6c-0.4,0-0.7-0.3-0.7-0.7c0-0.4,0.3-0.7,0.7-0.7h15.6c0.4,0,0.7,0.3,0.7,0.7&#10;&#9;&#9;C236,178.1,235.7,178.4,235.3,178.4C235.3,178.4,235.3,178.4,235.3,178.4z" style="fill: rgb(104, 225, 253);"/>
	<path class="st0_coding-1-29" d="M165.8,188.8h-8.3c-0.4,0-0.7-0.3-0.7-0.7c0-0.4,0.3-0.7,0.7-0.7h8.3c0.4,0,0.7,0.3,0.7,0.7&#10;&#9;&#9;C166.5,188.5,166.2,188.8,165.8,188.8z"/>
	<path class="st3_coding-1-29 targetColor" d="M211.7,188.8h-36.3c-0.4,0-0.7-0.3-0.7-0.7c0-0.4,0.3-0.7,0.7-0.7h36.3c0.4,0,0.7,0.3,0.7,0.7&#10;&#9;&#9;C212.4,188.5,212.1,188.8,211.7,188.8z" style="fill: rgb(104, 225, 253);"/>
	<path class="st0_coding-1-29" d="M173.1,199.2h-15.6c-0.4,0-0.7-0.3-0.7-0.7c0-0.4,0.3-0.7,0.7-0.7h15.6c0.4,0,0.7,0.3,0.7,0.7&#10;&#9;&#9;C173.8,198.9,173.5,199.2,173.1,199.2z"/>
	<path class="st0_coding-1-29" d="M191,209.6h-31.2c-0.4,0-0.7-0.3-0.7-0.7c0-0.4,0.3-0.7,0.7-0.7H191c0.4,0,0.7,0.3,0.7,0.7&#10;&#9;&#9;C191.7,209.3,191.4,209.6,191,209.6C191,209.6,191,209.6,191,209.6z"/>
	<path class="st3_coding-1-29 targetColor" d="M220.7,209.6H199c-0.4,0-0.7-0.3-0.7-0.7c0-0.4,0.3-0.7,0.7-0.7h21.7c0.4,0,0.7,0.3,0.7,0.7&#10;&#9;&#9;C221.4,209.3,221.1,209.6,220.7,209.6z" style="fill: rgb(104, 225, 253);"/>
	<path class="st3_coding-1-29 targetColor" d="M250.7,209.6h-26.9c-0.4,0-0.7-0.3-0.7-0.7c0-0.4,0.3-0.7,0.7-0.7h26.9c0.4,0,0.7,0.3,0.7,0.7&#10;&#9;&#9;C251.4,209.3,251.1,209.6,250.7,209.6z" style="fill: rgb(104, 225, 253);"/>
	<path class="st0_coding-1-29" d="M206.7,220h-45.5c-0.4,0-0.7-0.3-0.7-0.7c0-0.4,0.3-0.7,0.7-0.7c0,0,0,0,0,0h45.5c0.4,0,0.7,0.3,0.7,0.7&#10;&#9;&#9;C207.4,219.7,207.1,220,206.7,220z"/>
	<path class="st3_coding-1-29 targetColor" d="M233.1,220h-20.5c-0.4,0-0.7-0.3-0.7-0.7c0-0.4,0.3-0.7,0.7-0.7c0,0,0,0,0,0h20.5c0.4,0,0.7,0.3,0.7,0.7&#10;&#9;&#9;C233.8,219.7,233.5,220,233.1,220z" style="fill: rgb(104, 225, 253);"/>
	<path class="st3_coding-1-29 targetColor" d="M297.5,220h-48.1c-0.4,0-0.7-0.3-0.7-0.7c0-0.4,0.3-0.7,0.7-0.7c0,0,0,0,0,0h48.1c0.4,0,0.7,0.3,0.7,0.7&#10;&#9;&#9;C298.1,219.7,297.8,220,297.5,220z" style="fill: rgb(104, 225, 253);"/>
	<path class="st3_coding-1-29 targetColor" d="M260,147.2h-21.2c-0.4,0-0.7-0.3-0.7-0.7c0-0.4,0.3-0.7,0.7-0.7c0,0,0,0,0,0H260c0.4,0,0.7,0.3,0.7,0.7&#10;&#9;&#9;C260.7,146.9,260.4,147.2,260,147.2z" style="fill: rgb(104, 225, 253);"/>
	<path class="st3_coding-1-29 targetColor" d="M275.7,147.3c-7.3,0-7.5-0.1-7.7-0.2c-0.3-0.2-0.5-0.6-0.3-0.9c0.2-0.3,0.5-0.4,0.8-0.3&#10;&#9;&#9;c1.1,0.1,14.9,0.1,23.9,0l0,0c0.4,0,0.7,0.3,0.7,0.7s-0.3,0.7-0.7,0.7c0,0,0,0,0,0C284.6,147.3,279.3,147.3,275.7,147.3z" style="fill: rgb(104, 225, 253);"/>
	<path class="st3_coding-1-29 targetColor" d="M256.6,126.4h-30.7c-0.4,0-0.7-0.3-0.7-0.7c0-0.4,0.3-0.7,0.7-0.7h30.7c0.4,0,0.7,0.3,0.7,0.7&#10;&#9;&#9;C257.3,126.1,257,126.4,256.6,126.4z" style="fill: rgb(104, 225, 253);"/>
	<path class="st3_coding-1-29 targetColor" d="M293.3,126.4h-30.6c-0.4,0-0.7-0.3-0.7-0.7c0-0.4,0.3-0.7,0.7-0.7h30.6c0.4,0,0.7,0.3,0.7,0.7&#10;&#9;&#9;C294,126.1,293.7,126.4,293.3,126.4L293.3,126.4z" style="fill: rgb(104, 225, 253);"/>
	<path class="st3_coding-1-29 targetColor" d="M228.4,116.1c-7.1,0-10.7,0-10.9-0.1c-0.4-0.1-0.6-0.5-0.5-0.9c0.1-0.3,0.4-0.6,0.8-0.5c1.2,0.1,25.9,0,35.3,0&#10;&#9;&#9;l0,0c0.4,0,0.7,0.3,0.7,0.7c0,0.4-0.3,0.7-0.7,0.7C242.5,116.1,234.3,116.1,228.4,116.1z" style="fill: rgb(104, 225, 253);"/>
	<path class="st0_coding-1-29" d="M261.4,116c-0.2,0-0.4-0.1-0.5-0.3c-0.2-0.3-0.2-0.7,0.1-1c0,0,0,0,0,0c0.2-0.2,0.6-0.5,21.5-0.2&#10;&#9;&#9;c0.4,0,0.7,0.3,0.7,0.7c0,0,0,0,0,0c0,0.4-0.3,0.7-0.7,0.7c0,0,0,0,0,0c-7.4-0.1-19.6-0.2-20.8,0C261.6,116,261.5,116,261.4,116z"/>
	<path class="st3_coding-1-29 targetColor" d="M231.7,188.8h-15.8c-0.4,0-0.7-0.3-0.7-0.7c0-0.4,0.3-0.7,0.7-0.7h15.8c0.4,0,0.7,0.3,0.7,0.7&#10;&#9;&#9;C232.4,188.5,232.1,188.8,231.7,188.8C231.7,188.8,231.7,188.8,231.7,188.8L231.7,188.8z" style="fill: rgb(104, 225, 253);"/>
	<path class="st3_coding-1-29 targetColor" d="M195.4,199.2h-11.6c-0.4,0-0.7-0.3-0.7-0.7c0-0.4,0.3-0.7,0.7-0.7h11.6c0.4,0,0.7,0.3,0.7,0.7&#10;&#9;&#9;C196.1,198.9,195.8,199.2,195.4,199.2z" style="fill: rgb(104, 225, 253);"/>
	<path class="st0_coding-1-29" d="M227.5,199.2h-27.7c-0.4,0-0.7-0.3-0.7-0.7c0-0.4,0.3-0.7,0.7-0.7c0,0,0,0,0,0h27.7c0.4,0,0.7,0.3,0.7,0.7&#10;&#9;&#9;C228.2,198.9,227.9,199.2,227.5,199.2z"/>
	<path class="st3_coding-1-29 targetColor" d="M286.7,199.2h-53.6c-0.4,0-0.7-0.3-0.7-0.7c0-0.4,0.3-0.7,0.7-0.7h53.6c0.4,0,0.7,0.3,0.7,0.7&#10;&#9;&#9;C287.4,198.9,287.1,199.2,286.7,199.2z" style="fill: rgb(104, 225, 253);"/>
	<path class="st2_coding-1-29" d="M322.6,225.8c-0.4,0-0.7-0.3-0.7-0.7c0,0,0,0,0,0V102.6c0-0.4,0.3-0.7,0.7-0.7c0.4,0,0.7,0.3,0.7,0.7&#10;&#9;&#9;c0,0,0,0,0,0v122.4C323.3,225.4,323,225.7,322.6,225.8z"/>
	<path class="st3_coding-1-29 targetColor" d="M366,114.2h-33.1c-0.4,0-0.7-0.3-0.7-0.7c0-0.4,0.3-0.7,0.7-0.7H366c0.4,0,0.7,0.3,0.7,0.7&#10;&#9;&#9;C366.7,113.9,366.4,114.2,366,114.2z" style="fill: rgb(104, 225, 253);"/>
	<path class="st3_coding-1-29 targetColor" d="M366,126h-33.1c-0.4,0-0.7-0.3-0.7-0.7c0-0.4,0.3-0.7,0.7-0.7H366c0.4,0,0.7,0.3,0.7,0.7&#10;&#9;&#9;C366.7,125.7,366.4,126,366,126z" style="fill: rgb(104, 225, 253);"/>
	<path class="st0_coding-1-29" d="M354.8,137.7h-21.9c-0.4,0-0.7-0.3-0.7-0.7c0-0.4,0.3-0.7,0.7-0.7h21.9c0.4,0,0.7,0.3,0.7,0.7&#10;&#9;&#9;C355.5,137.4,355.2,137.7,354.8,137.7z"/>
	<path class="st3_coding-1-29 targetColor" d="M366,149.5h-23c-0.4,0-0.7-0.3-0.7-0.7c0-0.4,0.3-0.7,0.7-0.7h23c0.4,0,0.7,0.3,0.7,0.7&#10;&#9;&#9;C366.7,149.2,366.4,149.5,366,149.5z" style="fill: rgb(104, 225, 253);"/>
	<path class="st0_coding-1-29" d="M357.2,161.2h-24.3c-0.4,0-0.7-0.3-0.7-0.7c0-0.4,0.3-0.7,0.7-0.7h24.3c0.4,0,0.7,0.3,0.7,0.7&#10;&#9;&#9;C357.9,160.9,357.6,161.2,357.2,161.2L357.2,161.2z"/>
	<path class="st3_coding-1-29 targetColor" d="M345,173h-12.1c-0.4,0-0.7-0.3-0.7-0.7s0.3-0.7,0.7-0.7c0,0,0,0,0,0H345c0.4,0,0.7,0.3,0.7,0.7&#10;&#9;&#9;C345.7,172.7,345.4,173,345,173z" style="fill: rgb(104, 225, 253);"/>
	<path class="st3_coding-1-29 targetColor" d="M359.9,184.8h-27c-0.4,0-0.7-0.3-0.7-0.7s0.3-0.7,0.7-0.7c0,0,0,0,0,0h27c0.4,0,0.7,0.3,0.7,0.7&#10;&#9;&#9;S360.3,184.8,359.9,184.8C359.9,184.8,359.9,184.8,359.9,184.8z" style="fill: rgb(104, 225, 253);"/>
	<path class="st0_coding-1-29" d="M366,196.5h-23c-0.4,0-0.7-0.3-0.7-0.7c0-0.4,0.3-0.7,0.7-0.7h23c0.4,0,0.7,0.3,0.7,0.7&#10;&#9;&#9;C366.7,196.2,366.4,196.5,366,196.5z"/>
	<path class="st3_coding-1-29 targetColor" d="M359.9,208.3h-27c-0.4,0-0.7-0.3-0.7-0.7c0-0.4,0.3-0.7,0.7-0.7h27c0.4,0,0.7,0.3,0.7,0.7&#10;&#9;&#9;C360.6,208,360.2,208.3,359.9,208.3z" style="fill: rgb(104, 225, 253);"/>
	<path class="st0_coding-1-29" d="M343.8,220h-11c-0.4,0-0.7-0.3-0.7-0.7c0-0.4,0.3-0.7,0.7-0.7h11c0.4,0,0.7,0.3,0.7,0.7&#10;&#9;&#9;C344.5,219.7,344.2,220,343.8,220z"/>
</g>
</svg>