<svg id="visual" viewBox="0 0 900 600" width="900" height="600" xmlns="http://www.w3.org/2000/svg" xmlns:xlink="http://www.w3.org/1999/xlink" version="1.1"><rect x="0" y="0" width="900" height="600" fill="#0F1C3E"></rect><g transform="translate(490.99384379580727 285.264085607966)"><path d="M141.3 -179.2C172.1 -142.6 178.4 -87.6 181.1 -37.1C183.7 13.3 182.8 59.1 169.1 111.6C155.4 164 129 222.9 83.7 246.8C38.3 270.6 -26 259.4 -82.9 235.4C-139.9 211.4 -189.4 174.7 -223 124.8C-256.5 74.9 -274 11.7 -258.6 -40.4C-243.2 -92.5 -194.9 -133.6 -146.3 -167C-97.7 -200.4 -48.9 -226.2 3.2 -230C55.3 -233.9 110.6 -215.8 141.3 -179.2" fill="#7472f1"></path></g></svg>